<svg xmlns="http://www.w3.org/2000/svg" width="16" height="16" fill="none" viewBox="0 0 16 16">
  <path fill="#967CFF" d="M11.593 8c0 2.564-1.609 4.642-3.593 4.642-1.985 0-3.593-2.078-3.593-4.642 0-2.564 1.608-4.642 3.593-4.642 1.984 0 3.593 2.078 3.593 4.642ZM1.076 3.007c.078-.135.117-.202.16-.252a.724.724 0 0 1 .795-.214c.062.023.13.061.264.139l1.457.842c.135.078.202.117.252.16.23.195.315.512.213.796-.022.062-.06.13-.138.264a1.822 1.822 0 0 1-.16.251.724.724 0 0 1-.795.214 1.818 1.818 0 0 1-.263-.139l-1.458-.842a1.82 1.82 0 0 1-.252-.16.726.726 0 0 1-.213-.796c.022-.062.06-.129.138-.263ZM.512 7.702C.5 7.767.5 7.845.5 8s0 .233.012.297a.725.725 0 0 0 .582.584c.065.011.143.011.298.011H2.46c.155 0 .233 0 .297-.011a.725.725 0 0 0 .583-.584c.012-.064.012-.142.012-.297s0-.233-.012-.298a.725.725 0 0 0-.583-.583c-.064-.012-.142-.012-.297-.012H1.39c-.154 0-.232 0-.297.012a.725.725 0 0 0-.582.583Zm12.148 0c-.013.065-.013.143-.013.298s0 .233.012.297a.725.725 0 0 0 .583.584c.064.011.142.011.297.011h1.07c.154 0 .232 0 .296-.011a.725.725 0 0 0 .583-.584c.012-.064.012-.142.012-.297s0-.233-.012-.298a.725.725 0 0 0-.582-.583c-.065-.012-.143-.012-.298-.012H13.54c-.155 0-.232 0-.297.012a.725.725 0 0 0-.583.583Zm-.739 3.556a1.819 1.819 0 0 0-.138.264.726.726 0 0 0 .213.796c.05.043.117.082.252.16l1.457.842c.135.077.202.116.264.138.284.102.6.017.796-.213.042-.05.08-.117.159-.252a1.83 1.83 0 0 0 .138-.264.726.726 0 0 0-.213-.796c-.05-.043-.118-.082-.252-.16l-1.458-.841c-.134-.078-.201-.117-.263-.139a.725.725 0 0 0-.796.214c-.043.05-.081.117-.159.251ZM1.076 12.993a1.818 1.818 0 0 1-.138-.263.726.726 0 0 1 .213-.797c.05-.043.117-.081.251-.159l1.459-.842a1.82 1.82 0 0 1 .263-.139.724.724 0 0 1 .796.213c.043.05.081.118.159.252.077.135.116.202.138.264a.726.726 0 0 1-.213.796 1.82 1.82 0 0 1-.252.16l-1.458.842c-.134.078-.201.117-.263.139a.725.725 0 0 1-.796-.214 1.816 1.816 0 0 1-.159-.252Zm10.707-8.515c.022.062.06.13.138.264.078.134.117.201.16.251.194.23.511.315.795.214.062-.022.13-.061.263-.139l1.458-.842c.134-.078.201-.116.251-.159a.726.726 0 0 0 .214-.797 1.818 1.818 0 0 0-.139-.263 1.694 1.694 0 0 0-.159-.252.725.725 0 0 0-.796-.213c-.062.022-.129.06-.263.138l-1.457.842a1.762 1.762 0 0 0-.252.16.726.726 0 0 0-.213.796Z"/>
</svg>